Coordinates
version=1
nRows=4
nColumns=124
inDegrees=yes

Units are S.I. units (second, meters, Newtons, ...)
If the header above contains a line with 'inDegrees', this indicates whether rotational values are in degrees (yes) or radians (no).

endheader 
time	pelvis_tilt	pelvis_list	pelvis_rotation	pelvis_tx	pelvis_ty	pelvis_tz	hip_flexion_l	hip_adduction_l	hip_rotation_l	hip_flexion_r	hip_adduction_r	hip_rotation_r	knee_angle_l	knee_angle_r	ankle_angle_l	ankle_angle_r	subtalar_angle_l	subtalar_angle_r	mtp_angle_l	mtp_angle_r	lumbar_extension	lumbar_bending	lumbar_rotation	arm_flex_l	arm_add_l	arm_rot_l	arm_flex_r	arm_add_r	arm_rot_r	elbow_flex_l	elbow_flex_r	glut_med1_l/activation	glut_med2_l/activation	glut_med3_l/activation	glut_min1_l/activation	glut_min2_l/activation	glut_min3_l/activation	semimem_l/activation	semiten_l/activation	bifemlh_l/activation	bifemsh_l/activation	sar_l/activation	add_long_l/activation	add_brev_l/activation	add_mag1_l/activation	add_mag2_l/activation	add_mag3_l/activation	tfl_l/activation	pect_l/activation	grac_l/activation	glut_max1_l/activation	glut_max2_l/activation	glut_max3_l/activation	iliacus_l/activation	psoas_l/activation	quad_fem_l/activation	gem_l/activation	peri_l/activation	rect_fem_l/activation	vas_med_l/activation	vas_int_l/activation	vas_lat_l/activation	med_gas_l/activation	lat_gas_l/activation	soleus_l/activation	tib_post_l/activation	flex_dig_l/activation	flex_hal_l/activation	tib_ant_l/activation	per_brev_l/activation	per_long_l/activation	per_tert_l/activation	ext_dig_l/activation	ext_hal_l/activation	ercspn_l/activation	intobl_l/activation	extobl_l/activation	glut_med1_r/activation	glut_med2_r/activation	glut_med3_r/activation	glut_min1_r/activation	glut_min2_r/activation	glut_min3_r/activation	semimem_r/activation	semiten_r/activation	bifemlh_r/activation	bifemsh_r/activation	sar_r/activation	add_long_r/activation	add_brev_r/activation	add_mag1_r/activation	add_mag2_r/activation	add_mag3_r/activation	tfl_r/activation	pect_r/activation	grac_r/activation	glut_max1_r/activation	glut_max2_r/activation	glut_max3_r/activation	iliacus_r/activation	psoas_r/activation	quad_fem_r/activation	gem_r/activation	peri_r/activation	rect_fem_r/activation	vas_med_r/activation	vas_int_r/activation	vas_lat_r/activation	med_gas_r/activation	lat_gas_r/activation	soleus_r/activation	tib_post_r/activation	flex_dig_r/activation	flex_hal_r/activation	tib_ant_r/activation	per_brev_r/activation	per_long_r/activation	per_tert_r/activation	ext_dig_r/activation	ext_hal_r/activation	ercspn_r/activation	intobl_r/activation	extobl_r/activation	
          0.26687418	         -6.95992608	          0.82752740	         -2.04651025	          0.35238063	          0.92426608	         -0.00595872	         18.46379905	          0.33000606	         -7.37209249	          6.94734793	          2.24374632	         14.69895424	        -56.87828220	          2.07467693	         11.49348180	          0.19224068	          4.76667139	        -27.89092847	          3.03211480	          0.57306254	          3.49163738	          4.69932794	         -3.84275281	         10.16127924	        -13.47350282	         19.08435631	        -32.41249718	        -14.33923249	        -13.48188353	         63.44562290	         71.02224205	          0.05000043	          0.05000045	          0.05000038	          0.05000197	          0.05000179	          0.05000118	          0.05000207	          0.05000050	          0.05000026	          0.45261174	          0.33595567	          0.22042766	          0.42153398	          0.08150307	          0.05000249	          0.05000043	          0.58258784	          0.51063120	          0.20069789	          0.05000080	          0.05000036	          0.05000032	          0.14864190	          0.16003988	          0.34355669	          0.33608848	          0.05000161	          0.07491922	          0.05000055	          0.05000053	          0.05000043	          0.05000029	          0.05000059	          0.05000008	          0.05000045	          0.05000329	          0.05000235	          0.38040702	          0.16761106	          0.05001210	          0.68592956	          0.45593229	          0.69117610	          0.11924449	          0.19365467	          0.05000089	          0.17120059	          0.14827100	          0.14778416	          0.42760474	          0.38410795	          0.30212520	          0.14056062	          0.18255369	          0.07409594	          0.67585356	          0.05001759	          0.05000243	          0.05000262	          0.05000572	          0.05815303	          0.06488677	          0.05004256	          0.05001533	          0.05001421	          0.13086564	          0.06235759	          0.05723916	          0.05000495	          0.05777452	          0.05000263	          0.05002293	          0.44763355	          0.05000078	          0.05001978	          0.05002989	          0.05001105	          0.05008306	          0.05008305	          0.05008309	          0.05008300	          0.05008305	          0.05008307	          0.05008308	          0.05008308	          0.05008308	          0.05008307	          0.05008307	          0.05008307	          0.06933899	          0.05000029	          0.05000070	
          0.31135321	         -7.01644580	          2.10571467	         -5.29457684	          0.40379606	          0.92410550	         -0.00356094	         25.88790568	          1.79880095	         -8.52763620	          1.26267723	          0.01823095	         15.01696476	        -54.23202888	          7.28799422	         14.68423553	          0.76307804	          2.08852878	        -24.65633016	          1.61736558	          0.87413070	          3.65761347	          4.51038987	         -2.56300978	         12.06011366	        -13.47530129	         19.34883905	        -26.71572180	        -14.03011296	        -13.12336837	         53.81721279	         91.13173526	          0.05000051	          0.05000061	          0.05000055	          0.05000275	          0.05000218	          0.05000157	          0.05000060	          0.05000047	          0.05000025	          0.25992563	          0.23631233	          0.29027959	          0.24208714	          0.08706474	          0.05000465	          0.05000063	          0.42231109	          0.29331937	          0.11525710	          0.05000080	          0.05000043	          0.05000049	          0.14919709	          0.16342298	          0.35392204	          0.19301515	          0.05000125	          0.05000389	          0.05000439	          0.05000385	          0.05000208	          0.05000032	          0.05000066	          0.05000014	          0.05000104	          0.05000526	          0.05000383	          0.42033184	          0.20414525	          0.08699845	          0.54696559	          0.40639997	          0.53222989	          0.07875819	          0.21125979	          0.05000104	          0.18138326	          0.17351113	          0.25563886	          0.26534332	          0.42671440	          0.50881821	          0.19177171	          0.23788466	          0.12187316	          0.91825172	          0.17228902	          0.05000196	          0.05000232	          0.05000380	          0.05000622	          0.05000223	          0.05006158	          0.05000947	          0.05004669	          0.07515823	          0.05000294	          0.05000167	          0.14760920	          0.33482843	          0.12597327	          0.12242894	          0.73789377	          0.05000037	          0.05000568	          0.05000507	          0.05000503	          0.05008306	          0.05008306	          0.05008307	          0.05008303	          0.05008306	          0.05008307	          0.05008310	          0.05008306	          0.05008306	          0.05008307	          0.05008308	          0.05008308	          0.06251087	          0.05000039	          0.05000128	
          0.35583224	         -7.17588558	          2.92384539	         -8.70256366	          0.45547973	          0.92064271	         -0.00079809	         31.68649402	          2.21321081	         -9.33773303	         -2.86766448	         -1.61657071	         13.14122543	        -47.08422513	          9.71232316	         15.20364355	          2.62865441	          0.14590665	        -18.90353988	          0.86281764	          2.03915976	          3.85672603	          4.65944317	         -1.00329884	         12.04356015	        -13.58190266	         18.80839206	        -16.29223205	        -14.23159392	         -8.29556625	         46.17432452	        104.96915746	          0.05000084	          0.05000145	          0.05000196	          0.05000430	          0.05000502	          0.05000520	          0.05000021	          0.05000040	          0.05000021	          0.14927092	          0.53425609	          0.16670257	          0.13902571	          0.05000172	          0.05000097	          0.05000041	          0.34731386	          0.16845405	          0.06619020	          0.05000131	          0.05000063	          0.05000040	          0.23250638	          0.23292449	          0.20325523	          0.53600915	          0.05677431	          0.05000133	          0.05000080	          0.05000069	          0.05000039	          0.05000078	          0.05000160	          0.05000050	          0.05000218	          0.05000981	          0.05000812	          0.41913708	          0.21945217	          0.11455571	          0.34370477	          0.42692839	          0.34087505	          0.08526965	          0.31728576	          0.05000049	          0.15161576	          0.42373289	          0.36449414	          0.15239589	          0.57109551	          0.73803156	          0.19788407	          0.22813165	          0.13818323	          0.64855764	          0.09895207	          0.05000108	          0.05000193	          0.05000353	          0.05000895	          0.05001130	          0.08708958	          0.05000555	          0.05000652	          0.17235834	          0.16178175	          0.05011536	          0.08908769	          0.51931683	          0.21787928	          0.13312023	          0.84617202	          0.05000173	          0.05002067	          0.05002015	          0.05001758	          0.05008305	          0.05008305	          0.05008307	          0.05008302	          0.05008304	          0.05008306	          0.05008309	          0.05008308	          0.05008307	          0.05008308	          0.05008308	          0.05008308	          0.09475338	          0.05000023	          0.05000169	
          0.40031127	         -7.45112732	          3.25950765	        -11.75842278	          0.50832465	          0.91660157	          0.00205122	         35.64089849	          1.53282827	         -9.85399480	         -5.31266235	         -2.49347765	          9.79367995	        -37.12833264	          8.89306863	         14.19087094	          5.26178385	         -1.16200445	        -11.87932878	          0.47145137	          4.91759977	          4.03273292	          4.95877678	          0.79597763	          9.72307721	        -13.67017826	         16.78395677	         -2.87373390	        -14.19045061	         -0.54298603	         42.06060037	        111.47874344	          0.05000148	          0.05000218	          0.05000228	          0.05000673	          0.05000890	          0.05001159	          0.05000041	          0.05000059	          0.05000035	          0.17961561	          0.33033148	          0.09573609	          0.07984020	          0.05000209	          0.05000149	          0.05000070	          0.19945591	          0.09674878	          0.05000213	          0.05000175	          0.05000084	          0.05000057	          0.17097620	          0.15239532	          0.11672817	          0.30782619	          0.30563253	          0.05000057	          0.05000063	          0.05000055	          0.05000031	          0.05000170	          0.05000329	          0.05000070	          0.05000365	          0.05001531	          0.05001313	          0.42239713	          0.22595017	          0.12880628	          0.22781262	          0.47788265	          0.19671387	          0.06994537	          0.36733783	          0.05000089	          0.08707044	          0.57320165	          0.45990994	          0.08752043	          0.60942182	          0.83175319	          0.31742849	          0.36287470	          0.25219507	          0.80677190	          0.05689904	          0.05000101	          0.05000172	          0.05000319	          0.05000721	          0.05000513	          0.05001746	          0.05000446	          0.05002168	          0.18009933	          0.15282060	          0.08696639	          0.51772981	          0.87170418	          0.54846046	          0.23290921	          0.81620834	          0.05000027	          0.05000590	          0.05000539	          0.05000546	          0.05008302	          0.05008302	          0.05008306	          0.05008299	          0.05008302	          0.05008304	          0.05008309	          0.05008311	          0.05008310	          0.05008309	          0.05008309	          0.05008308	          0.05441517	          0.05000041	          0.05000215	
